<svg xmlns="http://www.w3.org/2000/svg" width="44" height="43" viewBox="0 0 44 43">
  <g id="ic_add_customer_products_black" transform="translate(-0.055 0.428)">
    <rect id="Rectangle_227" data-name="Rectangle 227" width="44" height="43" transform="translate(0.055 -0.428)" fill="#fff" opacity="0"/>
    <g id="Group_84" data-name="Group 84" transform="translate(7.886 6.914)">
      <g id="Rectangle_36" data-name="Rectangle 36" transform="translate(1.169 7.658)" fill="rgba(255,255,255,0)" stroke="#000" stroke-width="2">
        <path d="M0,0H26a0,0,0,0,1,0,0V18a4,4,0,0,1-4,4H4a4,4,0,0,1-4-4V0A0,0,0,0,1,0,0Z" stroke="none"/>
        <path d="M2,1H24a1,1,0,0,1,1,1V18a3,3,0,0,1-3,3H4a3,3,0,0,1-3-3V2A1,1,0,0,1,2,1Z" fill="none"/>
      </g>
      <g id="Rectangle_37" data-name="Rectangle 37" transform="translate(-0.831 -0.342)" fill="rgba(255,255,255,0)" stroke="#000" stroke-width="2">
        <rect width="30" height="10" rx="4" stroke="none"/>
        <rect x="1" y="1" width="28" height="8" rx="3" fill="none"/>
      </g>
      <path id="Union_4" data-name="Union 4" d="M4.551,10a1,1,0,0,1-1-1V6.5h-2.5a1,1,0,0,1-1-1v-1a1,1,0,0,1,1-1h2.5V1a1,1,0,0,1,1-1h1a1,1,0,0,1,1,1V3.5h2.5a1,1,0,0,1,1,1v1a1,1,0,0,1-1,1h-2.5V9a1,1,0,0,1-1,1Z" transform="translate(9.117 13.658)"/>
    </g>
  </g>
</svg>
