<svg xmlns="http://www.w3.org/2000/svg" width="44" height="44" viewBox="0 0 44 44">
  <g id="ic_add_note_to_check_black" transform="translate(-0.055 0.199)">
    <rect id="Rectangle_228" data-name="Rectangle 228" width="44" height="44" transform="translate(0.055 -0.199)" fill="#fff" opacity="0"/>
    <g id="Rectangle_37" data-name="Rectangle 37" transform="translate(7.055 6.801)" fill="none" stroke="#000" stroke-width="2">
      <rect width="30" height="30" rx="4" stroke="none"/>
      <rect x="1" y="1" width="28" height="28" rx="3" fill="none"/>
    </g>
    <path id="Union_5" data-name="Union 5" d="M4.5,10a1,1,0,0,1-1-1V6.5H1a1,1,0,0,1-1-1v-1a1,1,0,0,1,1-1H3.5V1a1,1,0,0,1,1-1h1a1,1,0,0,1,1,1V3.5H9a1,1,0,0,1,1,1v1a1,1,0,0,1-1,1H6.5V9a1,1,0,0,1-1,1Z" transform="translate(22.055 21.801)"/>
    <rect id="Rectangle_73" data-name="Rectangle 73" width="18" height="3" rx="1" transform="translate(12.055 11.801)"/>
    <rect id="Rectangle_74" data-name="Rectangle 74" width="10" height="3" rx="1" transform="translate(12.055 16.801)"/>
    <rect id="Rectangle_75" data-name="Rectangle 75" width="5" height="3" rx="1" transform="translate(12.055 25.301)"/>
  </g>
</svg>
