<svg xmlns="http://www.w3.org/2000/svg" width="44" height="44" viewBox="0 0 44 44">
  <g id="ic_add_service_charge_black" transform="translate(-0.055 -0.302)">
    <rect id="Rectangle_230" data-name="Rectangle 230" width="44" height="44" transform="translate(0.055 0.302)" fill="#fff" opacity="0"/>
    <g id="Group_158" data-name="Group 158" transform="translate(6.885 7.302)">
      <path id="Subtraction_10" data-name="Subtraction 10" d="M26,22.343H4a4,4,0,0,1-4-4V4A3.985,3.985,0,0,1,1.5.881v.907A2.99,2.99,0,0,0,3.138,4.463,1.986,1.986,0,0,0,3,5.193V17.152a2,2,0,0,0,2,2H25a2,2,0,0,0,2-2V5.193a2,2,0,0,0-2-2H10.151a3.006,3.006,0,0,0,.349-1.4V0H26a4.005,4.005,0,0,1,4,4V18.344A4,4,0,0,1,26,22.343Z" transform="translate(0.169 7.656)"/>
      <path id="Union_6" data-name="Union 6" d="M4.59,10.051a1,1,0,0,1-1-1V6.462H1a1,1,0,0,1-1-1V4.59a1,1,0,0,1,1-1H3.59V1a1,1,0,0,1,1-1h.872a1,1,0,0,1,1,1V3.59h2.59a1,1,0,0,1,1,1v.871a1,1,0,0,1-1,1H6.462V9.051a1,1,0,0,1-1,1Z" transform="translate(0.826 0)"/>
      <g id="Ellipse_18" data-name="Ellipse 18" transform="translate(21.169 7.657)" fill="none" stroke="#000" stroke-width="2">
        <circle cx="4.5" cy="4.5" r="4.5" stroke="none"/>
        <circle cx="4.5" cy="4.5" r="3.5" fill="none"/>
      </g>
      <g id="Ellipse_19" data-name="Ellipse 19" transform="translate(21.169 21)" fill="none" stroke="#000" stroke-width="2">
        <circle cx="4.5" cy="4.5" r="4.5" stroke="none"/>
        <circle cx="4.5" cy="4.5" r="3.5" fill="none"/>
      </g>
      <g id="Ellipse_20" data-name="Ellipse 20" transform="translate(0.169 21)" fill="none" stroke="#000" stroke-width="2">
        <circle cx="4.5" cy="4.5" r="4.5" stroke="none"/>
        <circle cx="4.5" cy="4.5" r="3.5" fill="none"/>
      </g>
    </g>
  </g>
</svg>
