<svg xmlns="http://www.w3.org/2000/svg" width="108" height="108" viewBox="0 0 108 108">
  <g id="ic_average_sales" transform="translate(-0.292 0.012)">
    <rect id="Rectangle_1333" data-name="Rectangle 1333" width="108" height="108" rx="6" transform="translate(0.292 -0.012)" fill="#eef5f6"/>
    <g id="Group_5445" data-name="Group 5445" transform="translate(21.709 21.205)">
      <path id="Path_12770" data-name="Path 12770" d="M398.677,206.418q0-6.455,0-12.911a1.078,1.078,0,0,1,1.1-1.1q5.018.025,10.037.054c.784,0,.919.1.986.9.074.886.119,1.778.119,2.667q-.01,11.292-.044,22.583c0,.324-.014.647-.031.971-.03.542-.2.758-.74.841a8.661,8.661,0,0,1-1.329.107q-4.654,0-9.308-.034c-.368,0-.634-.287-.67-.759-.047-.618-.081-1.239-.082-1.859q-.011-5.727,0-11.454Z" transform="translate(-346.252 -155.964)" fill="#e57607" fill-rule="evenodd"/>
      <path id="Path_12771" data-name="Path 12771" d="M-194.524,43.869c-.315-.561-.62-1.083-.9-1.618a9.414,9.414,0,0,1-.551-1.169c-.291-.8,0-1.232.845-1.251,1.174-.027,2.348-.027,3.522-.025,2.227,0,4.453.018,6.68.028a.849.849,0,0,1,.793,1.3q-1.29,2.362-2.623,4.7c-.656,1.148-1.338,2.281-2.028,3.408a6.985,6.985,0,0,1-.773,1.034.674.674,0,0,1-1.116-.027,9.233,9.233,0,0,1-.707-1.032c-.363-.579-.712-1.167-1.09-1.788-1.007.589-1.96,1.145-2.912,1.7-3.609,2.113-7.222,4.219-10.821,6.348a1.968,1.968,0,0,1-2.088.07c-5.129-2.62-10.277-5.2-15.408-7.82a1.333,1.333,0,0,0-1.369-.016q-9.65,4.812-19.327,9.571c-.508.251-1.026.48-1.545.708a1.838,1.838,0,0,1-2.429-.852,1.8,1.8,0,0,1,.9-2.654q6.662-3.37,13.337-6.713c2.788-1.39,5.614-2.7,8.393-4.111a2.913,2.913,0,0,1,2.9.024c3.909,2.014,7.844,3.975,11.77,5.956,1.132.571,2.259,1.151,3.4,1.7a.672.672,0,0,0,.545,0q6.2-3.634,12.376-7.3C-194.689,44-194.63,43.949-194.524,43.869Z" transform="translate(248.657 -15.723)" fill="#e57607" fill-rule="evenodd"/>
      <path id="Path_12772" data-name="Path 12772" d="M-20.387,248.045q0,5.648,0,11.3a1.157,1.157,0,0,1-1.017,1.031q-5.2-.031-10.4-.071a.689.689,0,0,1-.649-.691,14.41,14.41,0,0,1-.084-1.454q-.029-10.708-.046-21.416a1.086,1.086,0,0,1,1.02-1.018q5.04,0,10.081,0a1.113,1.113,0,0,1,1.1,1.109Q-20.387,242.438-20.387,248.045Z" transform="translate(50.09 -195.774)" fill="#e57607" fill-rule="evenodd"/>
      <path id="Path_12773" data-name="Path 12773" d="M55.116-234.377V-236.9c0-1.336-.015-2.672.01-4.008.006-.342-.119-.459-.417-.555-1.065-.342-2.122-.711-3.181-1.072-3.2-1.091-4.224-3.352-3.644-6.595.519-2.9,2.427-4.637,5.131-5.565.656-.225,1.353-.333,2.108-.514,0-.415,0-.911,0-1.406a.9.9,0,0,1,.433-.815.906.906,0,0,1,1.424.688,8.807,8.807,0,0,1,.008,1.254c-.027.342.152.4.418.446a9.513,9.513,0,0,1,4.062,1.617,6.035,6.035,0,0,1,2.789,5.273,2.351,2.351,0,0,1-1.332,2.08,1.858,1.858,0,0,1-2.124-.249,2.79,2.79,0,0,1-.714-.955c-.292-.59-.51-1.218-.762-1.829a4.321,4.321,0,0,0-1.688-2.016c-.4-.262-.547-.208-.573.281-.036.673-.047,1.348-.044,2.022.006,1.322.043,2.645.035,3.967,0,.366.127.5.465.607,1.208.381,2.431.738,3.6,1.228a4.814,4.814,0,0,1,3.216,4.611,7.354,7.354,0,0,1-6.314,7.582c-.33.059-.661.115-1.03.179,0,.488.006.959,0,1.429a1.034,1.034,0,0,1-.917,1.044,1.051,1.051,0,0,1-.948-1.059c-.006-.229-.005-.459-.006-.688s0-.457,0-.739c-.279-.057-.549-.117-.821-.169a8.548,8.548,0,0,1-5.275-3.059A5.042,5.042,0,0,1,47.833-238a2.079,2.079,0,0,1,1.3-1.728,1.872,1.872,0,0,1,2.573.826,14.242,14.242,0,0,1,.82,1.754,4.715,4.715,0,0,0,2.336,2.674C54.921-234.443,54.984-234.424,55.116-234.377Zm-.082-10.736v-6.417a3.483,3.483,0,0,0-2.641,2.129,2.7,2.7,0,0,0,.178,2.668A5.155,5.155,0,0,0,55.034-245.113Zm1.991,4.448c-.013.139-.027.215-.027.291,0,1.631,0,3.261.009,4.892a5.5,5.5,0,0,0,.074.8c.042.272.211.374.466.248a7.924,7.924,0,0,0,.921-.5,3.137,3.137,0,0,0,1.085-4.054A4.7,4.7,0,0,0,57.025-240.664Z" transform="translate(-23.724 257.592)" fill="#e57607" fill-rule="evenodd"/>
      <path id="Path_12774" data-name="Path 12774" d="M182.253,308.625q0-4.309,0-8.618a.8.8,0,0,1,.829-.908c.469-.044.942-.073,1.413-.075q3.925-.01,7.85,0c.417,0,.835.031,1.251.069a.857.857,0,0,1,.868.942q-.024,8.275-.052,16.549a9.265,9.265,0,0,1-.071,1.169.716.716,0,0,1-.828.722l-10.156.07a1.3,1.3,0,0,1-1.171-1.18q0-4.37,0-8.74Z" transform="translate(-147.293 -253.946)" fill="#e57607" fill-rule="evenodd"/>
      <path id="Path_12775" data-name="Path 12775" d="M-236.519,342.248c0,2.361.014,4.723-.014,7.083a3.48,3.48,0,0,1-.307,1.14.5.5,0,0,1-.392.2c-3.319.013-6.638.032-9.957,0-1.319-.011-1.471-.191-1.48-1.49q-.043-6.213-.051-12.426a13.747,13.747,0,0,1,.092-1.615c.1-.82.3-.994,1.119-1.005,2.293-.032,4.587-.063,6.88-.074.971,0,1.942.042,2.912.072a3.111,3.111,0,0,1,.52.07c.517.105.658.265.666.8q.034,2.348.051,4.7c.007.85,0,1.7,0,2.55Z" transform="translate(248.718 -286.151)" fill="#e57607" fill-rule="evenodd"/>
    </g>
  </g>
</svg>
