<svg id="ic_cash_payment_method" xmlns="http://www.w3.org/2000/svg" width="68" height="63" viewBox="0 0 68 63">
  <rect id="Rectangle_244" data-name="Rectangle 244" width="68" height="63" fill="#fff" opacity="0"/>
  <g id="money" transform="translate(7.831 14.064)">
    <path id="Path_30" data-name="Path 30" d="M192.182,165a7.6,7.6,0,0,0-5.944,2.964,10.8,10.8,0,0,0,0,13.162,7.441,7.441,0,0,0,11.887,0,10.8,10.8,0,0,0,0-13.162A7.6,7.6,0,0,0,192.182,165Zm0,15.944c-2.587,0-4.773-2.93-4.773-6.4s2.186-6.4,4.773-6.4,4.773,2.93,4.773,6.4S194.769,180.944,192.182,180.944Z" transform="translate(-164.186 -156.781)" fill="#fff"/>
    <path id="Path_31" data-name="Path 31" d="M50.355,105.438H4.483A4.488,4.488,0,0,0,0,109.921v25.693A4.488,4.488,0,0,0,4.483,140.1H50.355a4.488,4.488,0,0,0,4.483-4.483V109.921A4.488,4.488,0,0,0,50.355,105.438Zm1.03,4.483v5.747a8.7,8.7,0,0,1-6.776-6.776h5.746A1.031,1.031,0,0,1,51.385,109.921Zm-46.9-1.03h5.746a8.7,8.7,0,0,1-6.776,6.776v-5.747A1.031,1.031,0,0,1,4.483,108.891Zm-1.03,26.722v-5.747a8.7,8.7,0,0,1,6.776,6.776H4.483A1.031,1.031,0,0,1,3.453,135.613Zm10.28,1.03a12.158,12.158,0,0,0-10.28-10.28v-7.193a12.158,12.158,0,0,0,10.28-10.28H41.105a12.158,12.158,0,0,0,10.28,10.28v7.193a12.158,12.158,0,0,0-10.28,10.28H13.733Zm36.622,0H44.609a8.7,8.7,0,0,1,6.776-6.776v5.747A1.031,1.031,0,0,1,50.355,136.643Z" transform="translate(0 -105.438)" fill="#fff"/>
  </g>
</svg>
