<svg xmlns="http://www.w3.org/2000/svg" width="108" height="108" viewBox="0 0 108 108">
  <g id="ic_cash_sales" transform="translate(-0.135 0.012)">
    <rect id="Rectangle_1333" data-name="Rectangle 1333" width="108" height="108" rx="6" transform="translate(0.135 -0.012)" fill="#eef5f6"/>
    <g id="Group_5451" data-name="Group 5451" transform="translate(21.528 21.209)">
      <path id="Path_12776" data-name="Path 12776" d="M173.626,113c-.21,1.048-.353,2.115-.639,3.142a17,17,0,1,1,.474-6.91c.051.33.11.659.166.989Zm-19.07,7.747c0,.753-.015,1.488,0,2.223a1.89,1.89,0,0,0,3.78.02,12.916,12.916,0,0,0,0-1.514.878.878,0,0,1,.594-.991,5.388,5.388,0,0,0,3.181-4.86,5.275,5.275,0,0,0-2.9-5.144,9.1,9.1,0,0,0-2.759-.744,2.046,2.046,0,0,1-1.754-1.236,1.88,1.88,0,0,1,2.42-2.437,5.454,5.454,0,0,1,1.329.817,1.936,1.936,0,0,0,2.77-.053,1.857,1.857,0,0,0-.276-2.784c-.777-.624-1.664-1.112-2.594-1.721,0-.564.009-1.278,0-1.992a1.894,1.894,0,1,0-3.784.011c-.009.712,0,1.424,0,2.119a5.692,5.692,0,0,0,1.916,11.051,1.815,1.815,0,0,1,1.719,1.174,1.758,1.758,0,0,1-.36,1.99,1.656,1.656,0,0,1-2.006.482,7.2,7.2,0,0,1-1.774-1.254,1.953,1.953,0,0,0-2.763-.236,1.9,1.9,0,0,0-.04,2.806A8.038,8.038,0,0,0,154.556,120.748Z" transform="translate(-108.962 -71.702)" fill="#00b153" fill-rule="evenodd"/>
      <path id="Path_12777" data-name="Path 12777" d="M57.051,23.414V-26.094h-.717c-1.642,0-3.284.008-4.925,0A1.867,1.867,0,0,1,49.6-27.33a1.826,1.826,0,0,1,.563-2.111q6.583-5.66,13.184-11.3a7.119,7.119,0,0,1,.777-.509h1.01c.724.565,1.47,1.1,2.167,1.7q5.835,4.976,11.65,9.976a1.917,1.917,0,0,1,.708,2.239A1.922,1.922,0,0,1,77.667-26.1c-1.746,0-3.493,0-5.239.005a2.162,2.162,0,0,0-.222.036v.645c0,1.662-.01,3.325.008,4.987a.774.774,0,0,1-.443.792C64.429-15.345,60.589-8.949,60.906-.442c.287,7.713,4.126,13.475,10.785,17.35a.848.848,0,0,1,.527.869c-.035,1.03-.062,2.065,0,3.092a2.346,2.346,0,0,1-1.4,2.544Z" transform="translate(-34.191 41.25)" fill="#00b153" fill-rule="evenodd"/>
      <path id="Path_12778" data-name="Path 12778" d="M26.991,154.994q0-17.835,0-35.67c0-1.657.682-2.345,2.324-2.346h5.253v38.015Z" transform="translate(-15.498 -90.331)" fill="#00b153" fill-rule="evenodd"/>
      <path id="Path_12779" data-name="Path 12779" d="M-41.25,208.257a2.377,2.377,0,0,1,2.541-1.406c1.653.065,3.311.017,5.036.017v22.86h-6.188a2.913,2.913,0,0,1-1.389-1.389Z" transform="translate(41.25 -165.064)" fill="#00b153" fill-rule="evenodd"/>
    </g>
  </g>
</svg>
