<svg id="ic_card_payment_method" xmlns="http://www.w3.org/2000/svg" width="68" height="63" viewBox="0 0 68 63">
  <rect id="Rectangle_245" data-name="Rectangle 245" width="68" height="63" fill="#fff" opacity="0"/>
  <g id="credit-card" transform="translate(8.419 15.131)">
    <g id="Group_94" data-name="Group 94" transform="translate(0 0)">
      <g id="Group_93" data-name="Group 93">
        <path id="Path_32" data-name="Path 32" d="M45.292,85.333H5.266A5.274,5.274,0,0,0,0,90.6v23.173a5.274,5.274,0,0,0,5.266,5.267H45.292a5.274,5.274,0,0,0,5.266-5.267V90.6A5.274,5.274,0,0,0,45.292,85.333Zm3.16,28.439a3.164,3.164,0,0,1-3.16,3.16H5.266a3.164,3.164,0,0,1-3.16-3.16V90.6a3.164,3.164,0,0,1,3.16-3.16H45.292a3.164,3.164,0,0,1,3.16,3.16v23.173Z" transform="translate(0 -85.333)" fill="#fff" stroke="#fff" stroke-width="1"/>
      </g>
    </g>
    <g id="Group_96" data-name="Group 96" transform="translate(0 6.32)">
      <g id="Group_95" data-name="Group 95">
        <path id="Path_33" data-name="Path 33" d="M49.505,149.333H1.053A1.054,1.054,0,0,0,0,150.386v6.32a1.054,1.054,0,0,0,1.053,1.053H49.505a1.054,1.054,0,0,0,1.053-1.053v-6.32A1.054,1.054,0,0,0,49.505,149.333Zm-1.053,6.32H2.107V151.44H48.452v4.213Z" transform="translate(0 -149.333)" fill="#fff" stroke="#fff" stroke-width="1"/>
      </g>
    </g>
    <g id="Group_98" data-name="Group 98" transform="translate(6.32 21.066)">
      <g id="Group_97" data-name="Group 97" transform="translate(0 0)">
        <path id="Path_34" data-name="Path 34" d="M77.693,298.667H65.053a1.053,1.053,0,1,0,0,2.107h12.64a1.053,1.053,0,1,0,0-2.107Z" transform="translate(-64 -298.667)" fill="#fff" stroke="#fff" stroke-width="1"/>
      </g>
    </g>
    <g id="Group_100" data-name="Group 100" transform="translate(6.32 25.279)">
      <g id="Group_99" data-name="Group 99">
        <path id="Path_35" data-name="Path 35" d="M77.693,341.333H65.053a1.053,1.053,0,1,0,0,2.107h12.64a1.053,1.053,0,0,0,0-2.107Z" transform="translate(-64 -341.333)" fill="#fff" stroke="#fff" stroke-width="1"/>
      </g>
    </g>
    <g id="Group_102" data-name="Group 102" transform="translate(35.812 18.96)">
      <g id="Group_101" data-name="Group 101">
        <path id="Path_36" data-name="Path 36" d="M367.933,277.333h-2.107a3.164,3.164,0,0,0-3.16,3.16V282.6a3.164,3.164,0,0,0,3.16,3.16h2.107a3.164,3.164,0,0,0,3.16-3.16v-2.107A3.164,3.164,0,0,0,367.933,277.333Zm1.053,5.267a1.054,1.054,0,0,1-1.053,1.053h-2.107a1.054,1.054,0,0,1-1.053-1.053v-2.107a1.054,1.054,0,0,1,1.053-1.053h2.107a1.054,1.054,0,0,1,1.053,1.053Z" transform="translate(-362.667 -277.333)" fill="#fff" stroke="#fff" stroke-width="1"/>
      </g>
    </g>
  </g>
</svg>
