<svg xmlns="http://www.w3.org/2000/svg" width="44" height="44" viewBox="0 0 44 44">
  <g id="ic_discard_check_black" transform="translate(-0.055 0.197)">
    <rect id="Rectangle_232" data-name="Rectangle 232" width="44" height="44" transform="translate(0.055 -0.197)" fill="#fff" opacity="0"/>
    <g id="Group_86" data-name="Group 86" transform="translate(8.886 8.886)">
      <g id="Rectangle_36" data-name="Rectangle 36" transform="translate(2.169 5.917)" fill="rgba(255,255,255,0)" stroke="#000" stroke-width="2">
        <path d="M0,0H22a0,0,0,0,1,0,0V18a4,4,0,0,1-4,4H4a4,4,0,0,1-4-4V0A0,0,0,0,1,0,0Z" stroke="none"/>
        <path d="M2,1H20a1,1,0,0,1,1,1V18a3,3,0,0,1-3,3H4a3,3,0,0,1-3-3V2A1,1,0,0,1,2,1Z" fill="none"/>
      </g>
      <g id="Rectangle_37" data-name="Rectangle 37" transform="translate(-0.831 0.917)" fill="rgba(255,255,255,0)" stroke="#000" stroke-width="2">
        <rect width="28" height="7" rx="3.5" stroke="none"/>
        <rect x="1" y="1" width="26" height="5" rx="2.5" fill="none"/>
      </g>
      <path id="Union_4" data-name="Union 4" d="M7,10A1,1,0,0,1,6,9V1A1,1,0,0,1,7,0H8A1,1,0,0,1,9,1V9a1,1,0,0,1-1,1ZM0,10A1,1,0,0,1-1,9V1A1,1,0,0,1,0,0H1A1,1,0,0,1,2,1V9a1,1,0,0,1-1,1Z" transform="translate(9.169 11.917)"/>
      <rect id="Rectangle_88" data-name="Rectangle 88" width="10" height="5" rx="2.5" transform="translate(8.169 -2.083)"/>
    </g>
  </g>
</svg>
