<svg xmlns="http://www.w3.org/2000/svg" width="46" height="46" viewBox="0 0 46 46">
  <g id="ic_email" transform="translate(-83 -8)">
    <g id="Group_25001" data-name="Group 25001" transform="translate(30)">
      <rect id="Rectangle_18356" data-name="Rectangle 18356" width="46" height="46" transform="translate(53 8)" fill="#fff" opacity="0"/>
      <g id="Group_25000" data-name="Group 25000" transform="translate(1261.402 -843.297)">
        <path id="Union_43" data-name="Union 43" d="M-25003.064,2790.5h-9.072c-.139,0-.281,0-.434-.006a4.021,4.021,0,0,1-2.717-1.212,3.937,3.937,0,0,1-1.105-2.75c-.006-2.97-.006-6-.006-8.915v-10.554a1.629,1.629,0,0,1,.672-1.381c.74-.571,1.486-1.174,2.209-1.752.244-.195.49-.4.734-.59.139-.113.289-.213.428-.308a2.175,2.175,0,0,0,.652-.565,1.647,1.647,0,0,0,.037-.823c-.012-.182-.031-.37-.031-.559a3.5,3.5,0,0,1,3.623-3.616c.428-.006.811-.006,1.18-.006.471,0,.9,0,1.326.006h.006a.309.309,0,0,0,.219-.075c.717-.584,1.451-1.168,2.16-1.739.221-.176.439-.352.666-.527l4.789-3.83h.785l.133.094a.745.745,0,0,0,.082.056c.063.044.137.094.207.151l.584.465c2.172,1.745,4.42,3.547,6.629,5.324a.3.3,0,0,0,.221.082c.168,0,.332,0,.5-.006.332,0,.678-.006,1.016-.006.5,0,.918.013,1.313.025a3.453,3.453,0,0,1,3.252,2.938,7.949,7.949,0,0,1,.051,1.438c0,.17-.006.333-.006.5,0,.113.012.125.074.176.6.465,1.2.948,1.777,1.413.715.578,1.457,1.168,2.191,1.739a1.664,1.664,0,0,1,.672,1.419c-.006,1.205-.006,2.436-.006,3.623v5.469c0,3.422.006,6.843,0,10.265a3.856,3.856,0,0,1-2.342,3.673,4.411,4.411,0,0,1-1.916.37Zm-6.178-4.834c-.93.8-1.857,1.607-2.793,2.417h29.42l-.221-.195c-3.295-2.85-6.705-5.795-10.057-8.7-.918.747-1.859,1.5-2.77,2.229-.283.232-.572.458-.854.691a1.3,1.3,0,0,1-.811.3,1.271,1.271,0,0,1-.8-.3c-.326-.257-.646-.521-.975-.779-.871-.7-1.775-1.425-2.654-2.147C-25004.25,2781.345-25006.787,2783.536-25009.242,2785.665Zm26.771-14.811c-2.789,2.229-5.664,4.527-8.508,6.793,1.25,1.073,2.512,2.166,3.736,3.227.488.421.979.847,1.469,1.274l1.48,1.274c1.188,1.03,2.412,2.084,3.617,3.139v-17.146Zm-31.506-1.18v16.857a.04.04,0,0,0,.008.025c1.424-1.237,2.855-2.474,4.281-3.71l2.906-2.518c1.023-.885,2.047-1.771,3.1-2.675l.006-.006-10.3-8.237Zm5.9-9.781a1.074,1.074,0,0,0-1.2,1.2v3.823c0,1.67,0,3.39-.006,5.092a.143.143,0,0,0,.012.069.19.19,0,0,0,.039.044c4.33,3.453,8.223,6.573,11.9,9.524,3.881-3.114,7.867-6.3,11.854-9.486a.2.2,0,0,0,.1-.2c-.008-2.1-.008-4.225-.008-6.291v-2.48c0-.91-.389-1.293-1.287-1.293q-2.279-.01-4.557-.006l-6.072.006-5.895-.006Q-25005.63,2759.886-25008.074,2759.892Zm25.133,8.231c.539-.433,1.066-.854,1.588-1.268-.34-.276-.652-.527-.941-.76-.215-.169-.428-.339-.646-.515Zm-30.355-1.268c.52.414,1.041.829,1.582,1.262v-2.524C-25012.256,2766.026-25012.777,2766.441-25013.3,2766.855Zm12.795-10.24-1.037.829h8.432c-.15-.119-.3-.239-.445-.358-1.242-.986-2.518-2.009-3.773-3.02C-24998.381,2754.92-24999.461,2755.78-25000.5,2756.615Z" transform="translate(23811.5 -1897.704)" fill="#fff"/>
        <path id="Union_44" data-name="Union 44" d="M-25000.719,2753.718h-14.332a1.544,1.544,0,0,1-.578-.088,1.188,1.188,0,0,1-.773-1.23,1.18,1.18,0,0,1,1.08-1.093c.1-.006.207-.012.283-.012.057,0,.113.006.176.006h14.051c.063,0,.125-.006.188-.006a2.833,2.833,0,0,1,.3.019,1.144,1.144,0,0,1,1.023,1.055,1.166,1.166,0,0,1-.742,1.249,1.492,1.492,0,0,1-.621.1Z" transform="translate(23822.061 -1884.811)" fill="#fff"/>
        <path id="Union_45" data-name="Union 45" d="M-25000.785,2753.716q-7.043.01-14.094.006a1.624,1.624,0,0,0-.176,0,1.667,1.667,0,0,1-.238-.013,1.2,1.2,0,0,1-1.111-1.174,1.215,1.215,0,0,1,1.061-1.224,1.822,1.822,0,0,1,.244-.012h14.51a1.479,1.479,0,0,1,.314.025,1.218,1.218,0,0,1,.992,1.224,1.214,1.214,0,0,1-1.068,1.161c-.1.006-.2.013-.264.013S-25000.729,2753.716-25000.785,2753.716Z" transform="translate(23822.055 -1880.542)" fill="#fff"/>
      </g>
    </g>
  </g>
</svg>
