<svg id="ic_gift_card_method" xmlns="http://www.w3.org/2000/svg" width="68" height="63" viewBox="0 0 68 63">
  <rect id="Rectangle_244" data-name="Rectangle 244" width="68" height="63" fill="#fff" opacity="0"/>
  <g id="Group_5288" data-name="Group 5288" transform="translate(7.091 14.055)">
    <path id="Path_12711" data-name="Path 12711" d="M-408.7,223.776V246.4a1.314,1.314,0,0,0-.072.22,6.78,6.78,0,0,1-6.624,5.844c-9.172.02-31.98.018-41.152,0a6.785,6.785,0,0,1-6.457-5.024c-.092-.344-.161-.694-.241-1.041V223.776a1.909,1.909,0,0,0,.075-.261,6.8,6.8,0,0,1,6.622-5.8c9.172-.018,31.98-.016,41.153,0a6.779,6.779,0,0,1,6.455,5.025C-408.854,223.08-408.784,223.43-408.7,223.776Zm-3.443,9.8c-.091-.011-.142-.022-.194-.022-3.341,0-17.592,0-20.933-.008-.24,0-.316.117-.395.3a4.638,4.638,0,0,1-2.2,2.438,19.631,19.631,0,0,1-2.238.8c.019.032.079.146.148.255.613.966,1.225,1.932,1.843,2.894a1.7,1.7,0,0,1,.239,1.448,1.606,1.606,0,0,1-1.385,1.215,1.6,1.6,0,0,1-1.679-.759c-.848-1.305-1.675-2.624-2.512-3.936-.074-.116-.158-.226-.277-.4v11.234c.114.007.193.015.272.015,4.979,0,20.867,0,25.845,0a3.73,3.73,0,0,0,.754-.063,3.341,3.341,0,0,0,2.732-3.324c.022-3.035.007-8.8.007-11.833C-412.122,233.76-412.137,233.682-412.148,233.574Zm-29.6-5.5c.272-.166.5-.314.741-.451a5.061,5.061,0,0,1,2.616-.877,4.983,4.983,0,0,1,4.678,3.034.546.546,0,0,0,.586.381c3.209-.012,17.328-.007,20.537-.007h.434c.014-.129.03-.207.03-.284,0-1.332,0-4.027,0-5.359a3.269,3.269,0,0,0-.056-.635,3.391,3.391,0,0,0-3.513-2.755c-4.914,0-20.736,0-25.65,0-.129,0-.257.013-.4.021Zm-3.474,20.967V237.767l-.37.579c-.808,1.268-1.6,2.544-2.427,3.8a1.677,1.677,0,0,1-2.349.511,1.693,1.693,0,0,1-.51-2.35c.429-.7.881-1.394,1.323-2.09l.763-1.2c-.038-.031-.046-.043-.056-.045-.052-.01-.1-.02-.157-.026a5.143,5.143,0,0,1-4.328-3.155.506.506,0,0,0-.378-.232c-1.038-.019-4.8-.011-5.842-.009a1.831,1.831,0,0,0-.268.04c-.008.116-.019.208-.019.3,0,2.982,0,8.691,0,11.673a3.782,3.782,0,0,0,.062.754,3.348,3.348,0,0,0,3.323,2.734c2.755.022,8.238.007,10.994.007C-445.376,249.06-445.3,249.048-445.218,249.042Zm.018-27.922h-.363c-2.662,0-8.052-.006-10.714,0a3.381,3.381,0,0,0-3.556,3.562c-.006,1.225,0,3.813,0,5.037,0,.13.011.259.018.414.157.007.288.017.418.018.958,0,4.644-.009,5.6.007a.49.49,0,0,0,.533-.339,4.963,4.963,0,0,1,4.728-3.071,5.481,5.481,0,0,1,2.885,1.054c.141.086.28.177.45.284Zm-.645,10.725c-.8-.549-1.49-1.038-2.2-1.5a1.28,1.28,0,0,0-1.463.069,1.7,1.7,0,0,0-.545,2.31,1.5,1.5,0,0,0,2.19.526C-447.209,232.849-446.6,232.376-445.845,231.845Zm4.836-.1.032.19c.629.443,1.255.891,1.888,1.329a1.591,1.591,0,0,0,2.433-1.346c.05-1.1-1.12-2.11-2.018-1.659A25.556,25.556,0,0,0-441.009,231.745Z" transform="translate(463.25 -217.699)" fill="#fff" fill-rule="evenodd"/>
  </g>
</svg>
