<svg xmlns="http://www.w3.org/2000/svg" width="44" height="43" viewBox="0 0 44 43">
  <g id="ic_opened_checks_black" transform="translate(-0.055 -0.314)">
    <rect id="Rectangle_226" data-name="Rectangle 226" width="44" height="43" transform="translate(0.055 0.314)" fill="#fff" opacity="0"/>
    <g id="Group_56" data-name="Group 56" transform="translate(6.886 6.886)">
      <g id="Rectangle_36" data-name="Rectangle 36" transform="translate(5.169 20.429)" fill="rgba(255,255,255,0)" stroke="#000" stroke-width="2">
        <path d="M0,0H20a0,0,0,0,1,0,0V6a4,4,0,0,1-4,4H4A4,4,0,0,1,0,6V0A0,0,0,0,1,0,0Z" stroke="none"/>
        <path d="M2,1H18a1,1,0,0,1,1,1V6a3,3,0,0,1-3,3H4A3,3,0,0,1,1,6V2A1,1,0,0,1,2,1Z" fill="none"/>
      </g>
      <g id="Rectangle_37" data-name="Rectangle 37" transform="translate(0.169 0.429)" fill="rgba(255,255,255,0)" stroke="#000" stroke-width="2">
        <rect width="30" height="22" rx="4" stroke="none"/>
        <rect x="1" y="1" width="28" height="20" rx="3" fill="none"/>
      </g>
      <g id="left-arrow" transform="translate(21.17 6.429) rotate(90)">
        <g id="Group_83" data-name="Group 83" transform="translate(0 0)">
          <path id="Path_26" data-name="Path 26" d="M9.047,4.588l.026.006H4.683L6.858,2.276a1.018,1.018,0,0,0,.27-.7,1.015,1.015,0,0,0-.27-.7L6.3.288a.89.89,0,0,0-1.31,0L.27,5.3a1.037,1.037,0,0,0,0,1.4l4.723,5.015a.891.891,0,0,0,1.31,0l.555-.59a1.007,1.007,0,0,0,.27-.7.976.976,0,0,0-.27-.683L4.642,7.405H9.06A.993.993,0,0,0,10,6.4V5.562A.97.97,0,0,0,9.047,4.588Z" transform="translate(0 0)"/>
        </g>
      </g>
    </g>
  </g>
</svg>
