<svg xmlns="http://www.w3.org/2000/svg" width="44" height="43" viewBox="0 0 44 43">
  <g id="ic_print_check_black" transform="translate(-0.055 0.426)">
    <rect id="Rectangle_231" data-name="Rectangle 231" width="44" height="43" transform="translate(0.055 -0.426)" fill="#fff" opacity="0"/>
    <g id="Group_85" data-name="Group 85" transform="translate(7.886 5.914)">
      <g id="Path_27" data-name="Path 27" transform="translate(2.169 7.685)" fill="rgba(255,255,255,0)">
        <path d="M 4.615487098693848 20.90982437133789 C 2.566396951675415 20.53439903259277 1 18.57930946350098 1 16.23118209838867 L 1 2.50701896220562e-06 L 23 2.50701896220562e-06 L 23 16.23118209838867 C 23 18.57803153991699 21.4351978302002 20.53228950500488 19.38774490356445 20.90922927856445 C 19.29833984375 20.63833999633789 19.18754196166992 20.32447052001953 19.06060028076172 20.00880241394043 C 18.64496040344238 18.97527313232422 18.0303897857666 17.78893280029297 16.95833015441895 17.78893280029297 C 15.97357082366943 17.78893280029297 15.55869483947754 18.67491340637207 15.28310680389404 19.57314300537109 C 15.21963596343994 19.3375244140625 15.14933300018311 19.10939598083496 15.06497955322266 18.90399169921875 C 14.68649005889893 17.98238182067871 14.09566020965576 17.78893280029297 13.66666984558105 17.78893280029297 C 13.2448902130127 17.78893280029297 12.65837955474854 17.97950172424316 12.25948047637939 18.88737297058105 C 12.17534828186035 19.0788402557373 12.10267543792725 19.2902717590332 12.03607082366943 19.5092658996582 C 11.97899055480957 19.29815864562988 11.91608810424805 19.09451675415039 11.84228038787842 18.90980339050293 C 11.47210025787354 17.9833927154541 10.88535976409912 17.78893280029297 10.45833015441895 17.78893280029297 C 10.0349702835083 17.78893280029297 9.452320098876953 17.98036193847656 9.08080005645752 18.89234161376953 C 8.982677459716797 19.13321304321289 8.903329849243164 19.40725135803223 8.831180572509766 19.68790817260742 C 8.539569854736328 18.7534065246582 8.116147994995117 17.78893280029297 7.083330154418945 17.78893280029297 C 5.998479843139648 17.78893280029297 5.374000072479248 18.97179222106934 4.951159954071045 20.0023021697998 C 4.820532321929932 20.32065391540527 4.706887245178223 20.63716506958008 4.615487098693848 20.90982437133789 Z" stroke="none"/>
        <path d="M 2 1.000001907348633 L 2 16.23118209838867 C 2 17.76692581176758 2.827577590942383 19.08963775634766 4.008207321166992 19.66630935668945 C 4.014101028442383 19.65179634094238 4.020050048828125 19.63721656799316 4.026010513305664 19.6226921081543 C 4.344030380249023 18.8476619720459 5.188779830932617 16.78893280029297 7.083330154418945 16.78893280029297 C 7.832574844360352 16.78893280029297 8.379384994506836 17.08328437805176 8.786469459533691 17.50659561157227 C 9.174131393432617 17.08320426940918 9.708010673522949 16.78893280029297 10.45833015441895 16.78893280029297 C 10.79256916046143 16.78893280029297 11.46451282501221 16.86988258361816 12.05653667449951 17.43685150146484 C 12.44637680053711 17.05121040344238 12.96500968933105 16.78893280029297 13.66666030883789 16.78893280029297 C 14.3941650390625 16.78893280029297 14.92030429840088 17.06245994567871 15.30777263641357 17.46252632141113 C 15.70458316802979 17.06279563903809 16.23543930053711 16.78893280029297 16.95833015441895 16.78893280029297 C 18.84354972839355 16.78893280029297 19.67527008056641 18.85711288452148 19.98838043212891 19.63569259643555 C 19.99199485778809 19.64468193054199 19.99560737609863 19.6536922454834 19.99919700622559 19.66267967224121 C 21.17580795288086 19.08406257629395 22 17.76365089416504 22 16.23118209838867 L 22 1.000001907348633 L 2 1.000001907348633 M 0 -0.9999980926513672 L 24 -0.9999980926513672 L 24 16.23118209838867 C 24 19.40335273742676 21.61218070983887 21.97490310668945 18.66666030883789 21.97490310668945 C 18.66666030883789 21.97490310668945 17.8125 18.78893280029297 16.95833015441895 18.78893280029297 C 16.10416030883789 18.78893280029297 16.07291984558105 21.97490310668945 15.25 21.97490310668945 C 14.42708015441895 21.97490310668945 14.47916984558105 18.78893280029297 13.66666030883789 18.78893280029297 C 12.85416984558105 18.78893280029297 12.80208015441895 21.97490310668945 12 21.97490310668945 C 11.19791984558105 21.97490310668945 11.23958015441895 18.78893280029297 10.45833015441895 18.78893280029297 C 9.677080154418945 18.78893280029297 9.71875 21.97490310668945 8.875 21.97490310668945 C 8.03125 21.97490310668945 7.96875 18.78893280029297 7.083330154418945 18.78893280029297 C 6.197919845581055 18.78893280029297 5.333330154418945 21.97490310668945 5.333330154418945 21.97490310668945 C 2.387809753417969 21.97490310668945 0 19.40335273742676 0 16.23118209838867 L 0 -0.9999980926513672 Z" stroke="none" fill="#000"/>
      </g>
      <g id="Rectangle_84" data-name="Rectangle 84" transform="translate(0.169 -0.341)" fill="rgba(255,255,255,0)" stroke="#000" stroke-width="2">
        <rect width="28" height="9" rx="4" stroke="none"/>
        <rect x="1" y="1" width="26" height="7" rx="3" fill="none"/>
      </g>
      <rect id="Rectangle_85" data-name="Rectangle 85" width="14" height="3" rx="1" transform="translate(7.169 11.659)"/>
      <rect id="Rectangle_86" data-name="Rectangle 86" width="14" height="3" rx="1" transform="translate(7.169 18.197)"/>
    </g>
  </g>
</svg>
