<svg xmlns="http://www.w3.org/2000/svg" width="36" height="36" viewBox="0 0 36 36">
  <g id="menu_cash_management_unselected" transform="translate(0.163 -0.111)">
    <rect id="Rectangle_218" data-name="Rectangle 218" width="36" height="36" transform="translate(-0.163 0.111)" fill="#fff" opacity="0"/>
    <g id="Group_158" data-name="Group 158" transform="translate(6.041 8.457)">
      <path id="Subtraction_10" data-name="Subtraction 10" d="M21,19H3a3,3,0,0,1-3-3V3A3,3,0,0,1,3,0H21a3,3,0,0,1,3,3V16A3,3,0,0,1,21,19ZM3.4,2.375a1,1,0,0,0-1,1V15.626a1,1,0,0,0,1,1H20.6a1,1,0,0,0,1-1V3.375a1,1,0,0,0-1-1Z" transform="translate(-0.204 -0.346)" fill="#a5acae"/>
      <path id="Ellipse_18" data-name="Ellipse 18" d="M3.5,2A1.5,1.5,0,1,0,5,3.5,1.5,1.5,0,0,0,3.5,2m0-2A3.5,3.5,0,1,1,0,3.5,3.5,3.5,0,0,1,3.5,0Z" transform="translate(16.796 -0.346)" fill="#a5acae"/>
      <circle id="Ellipse_147" data-name="Ellipse 147" cx="2.5" cy="2.5" r="2.5" transform="translate(9.796 6.654)" fill="#a5acae"/>
      <path id="Ellipse_146" data-name="Ellipse 146" d="M3.5,2A1.5,1.5,0,1,0,5,3.5,1.5,1.5,0,0,0,3.5,2m0-2A3.5,3.5,0,1,1,0,3.5,3.5,3.5,0,0,1,3.5,0Z" transform="translate(-0.204 -0.346)" fill="#a5acae"/>
      <path id="Ellipse_19" data-name="Ellipse 19" d="M3.5,2A1.5,1.5,0,1,0,5,3.5,1.5,1.5,0,0,0,3.5,2m0-2A3.5,3.5,0,1,1,0,3.5,3.5,3.5,0,0,1,3.5,0Z" transform="translate(16.796 11.654)" fill="#a5acae"/>
      <path id="Ellipse_20" data-name="Ellipse 20" d="M3.5,2A1.5,1.5,0,1,0,5,3.5,1.5,1.5,0,0,0,3.5,2m0-2A3.5,3.5,0,1,1,0,3.5,3.5,3.5,0,0,1,3.5,0Z" transform="translate(-0.204 11.654)" fill="#a5acae"/>
    </g>
  </g>
</svg>
