<svg xmlns="http://www.w3.org/2000/svg" width="36" height="36" viewBox="0 0 36 36">
  <g id="menu_reports_unselected" transform="translate(0.163 0.233)">
    <rect id="Rectangle_220" data-name="Rectangle 220" width="36" height="36" transform="translate(-0.163 -0.233)" fill="#a5acae" opacity="0"/>
    <g id="sales" transform="translate(9.666 6.418)">
      <path id="Path_23" data-name="Path 23" d="M194.8,164.895c-.758,0-1.4-.48-1.4-1.049s.64-1.049,1.4-1.049a1.58,1.58,0,0,1,1,.333.7.7,0,0,0,.882-1.084,2.86,2.86,0,0,0-1.183-.559V160.7a.7.7,0,1,0-1.4,0v.786a2.532,2.532,0,0,0-2.1,2.361,2.642,2.642,0,0,0,2.8,2.447c.758,0,1.4.48,1.4,1.049s-.64,1.049-1.4,1.049a1.58,1.58,0,0,1-1-.333.7.7,0,1,0-.882,1.084,2.874,2.874,0,0,0,1.183.558v.789a.7.7,0,1,0,1.4,0V169.7a2.532,2.532,0,0,0,2.1-2.361A2.642,2.642,0,0,0,194.8,164.895Z" transform="translate(-186.117 -151.438)" fill="#a5acae"/>
      <path id="Path_23_-_Outline" data-name="Path 23 - Outline" d="M194.8,159.8a.9.9,0,0,1,.9.9v.631a2.983,2.983,0,0,1,1.11.561.9.9,0,0,1-.568,1.6.9.9,0,0,1-.567-.2A1.38,1.38,0,0,0,194.8,163c-.638,0-1.2.4-1.2.849s.56.849,1.2.849a2.842,2.842,0,0,1,3,2.647,2.7,2.7,0,0,1-2.1,2.516v.63a.9.9,0,1,1-1.8,0v-.633a3,3,0,0,1-1.109-.559.9.9,0,0,1,.567-1.6.9.9,0,0,1,.568.2,1.38,1.38,0,0,0,.873.288c.638,0,1.2-.4,1.2-.849s-.56-.849-1.2-.849a2.842,2.842,0,0,1-3-2.647,2.7,2.7,0,0,1,2.1-2.516v-.63A.9.9,0,0,1,194.8,159.8Zm1.441,3.287a.5.5,0,0,0,.316-.886,2.642,2.642,0,0,0-1.1-.52l-.156-.035V160.7a.5.5,0,1,0-1,0v.945l-.156.035a2.332,2.332,0,0,0-1.942,2.166,2.444,2.444,0,0,0,2.6,2.247,1.287,1.287,0,1,1,0,2.5,1.78,1.78,0,0,1-1.126-.378.5.5,0,0,0-.812.438.493.493,0,0,0,.182.335,2.655,2.655,0,0,0,1.1.518l.156.035v.948a.5.5,0,1,0,1,0v-.945l.156-.035a2.332,2.332,0,0,0,1.942-2.166,2.444,2.444,0,0,0-2.6-2.247,1.287,1.287,0,1,1,0-2.5,1.78,1.78,0,0,1,1.126.378A.492.492,0,0,0,196.238,163.087Z" transform="translate(-186.117 -151.438)" fill="#a5acae"/>
      <path id="Path_24" data-name="Path 24" d="M80.179,2.942H77.238V2.206a.736.736,0,0,0-.735-.735H74.9a2.206,2.206,0,0,0-4.16,0h-1.6a.736.736,0,0,0-.735.735v.735H65.471A1.455,1.455,0,0,0,64,4.413v17.65a1.455,1.455,0,0,0,1.471,1.471H80.179a1.455,1.455,0,0,0,1.471-1.471V4.413A1.455,1.455,0,0,0,80.179,2.942Zm-10.3,0h1.471a.736.736,0,0,0,.735-.735.735.735,0,1,1,1.471,0,.736.736,0,0,0,.735.735h1.471V4.413H69.883Zm10.3,19.121H65.471V4.413h2.942v.735a.736.736,0,0,0,.735.735H76.5a.736.736,0,0,0,.735-.735V4.413h2.942Z" transform="translate(-64)" fill="#a5acae"/>
      <path id="Path_24_-_Outline" data-name="Path 24 - Outline" d="M72.825-.2a2.411,2.411,0,0,1,2.217,1.471H76.5a.936.936,0,0,1,.935.935v.535h2.742A1.653,1.653,0,0,1,81.85,4.413v17.65a1.653,1.653,0,0,1-1.671,1.671H65.471A1.653,1.653,0,0,1,63.8,22.063V4.413a1.653,1.653,0,0,1,1.671-1.671h2.742V2.206a.936.936,0,0,1,.935-.935h1.46A2.411,2.411,0,0,1,72.825-.2Zm7.354,23.533a1.257,1.257,0,0,0,1.271-1.271V4.413a1.257,1.257,0,0,0-1.271-1.271H77.038V2.206a.536.536,0,0,0-.535-.535H74.763l-.047-.133a2.006,2.006,0,0,0-3.782,0l-.047.133H69.148a.536.536,0,0,0-.535.535v.935H65.471A1.257,1.257,0,0,0,64.2,4.413v17.65a1.257,1.257,0,0,0,1.271,1.271ZM72.825,1.271a.936.936,0,0,1,.935.935.536.536,0,0,0,.535.535h1.671V4.613H69.683V2.742h1.671a.536.536,0,0,0,.535-.535A.936.936,0,0,1,72.825,1.271Zm2.742,1.871H74.3a.936.936,0,0,1-.935-.935.535.535,0,1,0-1.071,0,.936.936,0,0,1-.935.935H70.083V4.213h5.483Zm-10.3,1.071h3.342v.935a.536.536,0,0,0,.535.535H76.5a.536.536,0,0,0,.535-.535V4.213h3.342v18.05H65.271Zm2.942.4H65.671v17.25H79.979V4.613H77.438v.535a.936.936,0,0,1-.935.935H69.148a.936.936,0,0,1-.935-.935Z" transform="translate(-64)" fill="#a5acae"/>
    </g>
  </g>
</svg>
