<svg xmlns="http://www.w3.org/2000/svg" width="36" height="36" viewBox="0 0 36 36">
  <g id="menu_opened_checks_selected" transform="translate(0.163 -0.08)" opacity="0">
    <rect id="Rectangle_217" data-name="Rectangle 217" width="36" height="36" transform="translate(-0.163 0.08)" fill="#e57607" opacity="0"/>
    <g id="Group_56" data-name="Group 56" transform="translate(6.041 6.041)">
      <path id="Rectangle_36" data-name="Rectangle 36" d="M2,2V3A2,2,0,0,0,4,5h8a2,2,0,0,0,2-2V2H2M0,0H16V3a4,4,0,0,1-4,4H4A4,4,0,0,1,0,3Z" transform="translate(3.796 17.039)" fill="#e57607"/>
      <path id="Rectangle_37" data-name="Rectangle 37" d="M4,2A2,2,0,0,0,2,4V15a2,2,0,0,0,2,2H20a2,2,0,0,0,2-2V4a2,2,0,0,0-2-2H4M4,0H20a4,4,0,0,1,4,4V15a4,4,0,0,1-4,4H4a4,4,0,0,1-4-4V4A4,4,0,0,1,4,0Z" transform="translate(-0.204 0.039)" fill="#e57607"/>
      <g id="left-arrow" transform="translate(16.704 5.196) rotate(90)">
        <g id="Group_83" data-name="Group 83">
          <path id="Path_26" data-name="Path 26" d="M7.859,3.753l.023.005H4.068l1.89-1.9a.814.814,0,0,0,0-1.144L5.475.235a.806.806,0,0,0-1.138,0l-4.1,4.1a.812.812,0,0,0,0,1.142l4.1,4.1a.807.807,0,0,0,1.138,0L5.958,9.1a.8.8,0,0,0,.235-.569.774.774,0,0,0-.235-.558L4.033,6.058H7.87a.835.835,0,0,0,.817-.826V4.549A.819.819,0,0,0,7.859,3.753Z" fill="#e57607"/>
        </g>
      </g>
    </g>
  </g>
</svg>
