<svg xmlns="http://www.w3.org/2000/svg" width="36" height="36" viewBox="0 0 36 36">
  <g id="menu_logout_unselected" transform="translate(0.163 -0.141)">
    <rect id="Rectangle_218" data-name="Rectangle 218" width="36" height="36" transform="translate(-0.163 0.141)" fill="#fff" opacity="0"/>
    <g id="Group_5244" data-name="Group 5244" transform="translate(5.831 6.06)">
      <path id="Path_10065" data-name="Path 10065" d="M307.4,409.723c-.45-.062-.9-.1-1.35-.188a12.016,12.016,0,0,1-7.726-18.74,11.138,11.138,0,0,1,2.309-2.444,1.408,1.408,0,0,1,1.99.153,1.372,1.372,0,0,1-.159,1.962,11.064,11.064,0,0,0-1.749,1.812,9.025,9.025,0,0,0-1.681,6.774,9.176,9.176,0,0,0,12.558,7.168,9.018,9.018,0,0,0,3.679-2.756,8.883,8.883,0,0,0,1.8-3.746,9.176,9.176,0,0,0-3.2-9.144,1.405,1.405,0,1,1,1.714-2.222,11.73,11.73,0,0,1,4.375,7.6,11.978,11.978,0,0,1-8.282,13.228,11.167,11.167,0,0,1-2.656.5,1.456,1.456,0,0,0-.205.042Z" transform="translate(-296.079 -385.56)" fill="#a5acae" fill-rule="evenodd"/>
      <path id="Path_10066" data-name="Path 10066" d="M306.361,386.038a2.168,2.168,0,0,1,1.125.593A1.964,1.964,0,0,1,308,388.01q0,4.576,0,9.153a1.868,1.868,0,0,1-3.72.329c-.019-.2-.03-.408-.03-.611q0-4.388,0-8.776a2.057,2.057,0,0,1,.5-1.455,2.161,2.161,0,0,1,1.14-.611Z" transform="translate(-294.095 -386.038)" fill="#a5acae" fill-rule="evenodd"/>
    </g>
  </g>
</svg>
