<svg xmlns="http://www.w3.org/2000/svg" width="36" height="36" viewBox="0 0 36 36">
  <g id="menu_settings_unselected" transform="translate(0.163 0.202)">
    <rect id="Rectangle_221" data-name="Rectangle 221" width="36" height="36" transform="translate(-0.163 -0.202)" fill="#a5acae" opacity="0"/>
    <g id="Group_63" data-name="Group 63" transform="translate(5.837 5.798)">
      <path id="Path_18" data-name="Path 18" d="M22.772,9.482,21.087,9.2a9.512,9.512,0,0,0-.677-1.634L21.4,6.173a1.478,1.478,0,0,0-.16-1.91L19.748,2.768A1.472,1.472,0,0,0,18.7,2.332a1.457,1.457,0,0,0-.857.276L16.449,3.6a9.413,9.413,0,0,0-1.695-.7l-.281-1.665A1.481,1.481,0,0,0,13.01,0H10.9A1.481,1.481,0,0,0,9.435,1.239l-.291,1.7a9.278,9.278,0,0,0-1.629.687L6.137,2.638a1.481,1.481,0,0,0-1.91.16l-1.5,1.494a1.484,1.484,0,0,0-.16,1.91l1,1.409A9.291,9.291,0,0,0,2.9,9.251l-1.664.281A1.481,1.481,0,0,0,0,11v2.111A1.481,1.481,0,0,0,1.238,14.57l1.7.291a9.278,9.278,0,0,0,.687,1.629l-.988,1.374a1.478,1.478,0,0,0,.16,1.91L4.3,21.269a1.472,1.472,0,0,0,1.048.436,1.457,1.457,0,0,0,.857-.276l1.409-1a9.485,9.485,0,0,0,1.584.652l.281,1.685A1.481,1.481,0,0,0,10.94,24h2.116a1.481,1.481,0,0,0,1.464-1.238l.286-1.685a9.512,9.512,0,0,0,1.634-.677l1.389.993a1.472,1.472,0,0,0,.862.276h0a1.472,1.472,0,0,0,1.048-.436l1.494-1.494a1.484,1.484,0,0,0,.16-1.91L20.4,16.436a9.444,9.444,0,0,0,.677-1.634l1.685-.281A1.481,1.481,0,0,0,24,13.056V10.946A1.463,1.463,0,0,0,22.772,9.482Zm-.115,3.575a.13.13,0,0,1-.11.13l-2.106.351a.673.673,0,0,0-.541.5,8.026,8.026,0,0,1-.872,2.1.678.678,0,0,0,.03.737l1.238,1.745a.137.137,0,0,1-.015.17l-1.494,1.494a.127.127,0,0,1-.1.04.123.123,0,0,1-.075-.025l-1.74-1.238a.677.677,0,0,0-.737-.03,8.026,8.026,0,0,1-2.1.872.665.665,0,0,0-.5.541l-.356,2.106a.13.13,0,0,1-.13.11H10.945a.13.13,0,0,1-.13-.11l-.351-2.106a.673.673,0,0,0-.5-.541,8.334,8.334,0,0,1-2.056-.842.694.694,0,0,0-.341-.09.66.66,0,0,0-.391.125L5.425,20.341a.149.149,0,0,1-.075.025.134.134,0,0,1-.1-.04L3.76,18.832a.136.136,0,0,1-.015-.17l1.233-1.73a.686.686,0,0,0,.03-.742,7.95,7.95,0,0,1-.882-2.1.687.687,0,0,0-.541-.5l-2.121-.361a.13.13,0,0,1-.11-.13V11a.13.13,0,0,1,.11-.13l2.091-.351a.678.678,0,0,0,.546-.5,8.018,8.018,0,0,1,.857-2.106.669.669,0,0,0-.035-.732L3.675,5.421a.137.137,0,0,1,.015-.17L5.184,3.756a.127.127,0,0,1,.1-.04.123.123,0,0,1,.075.025l1.73,1.233A.686.686,0,0,0,7.826,5a7.95,7.95,0,0,1,2.1-.882.687.687,0,0,0,.5-.541l.361-2.121a.13.13,0,0,1,.13-.11H13.02a.13.13,0,0,1,.13.11L13.5,3.551A.678.678,0,0,0,14,4.1a8.138,8.138,0,0,1,2.151.882.678.678,0,0,0,.737-.03l1.73-1.243a.149.149,0,0,1,.075-.025.134.134,0,0,1,.1.04l1.494,1.494a.136.136,0,0,1,.015.17l-1.238,1.74a.677.677,0,0,0-.03.737,8.026,8.026,0,0,1,.872,2.1.665.665,0,0,0,.541.5l2.106.356a.13.13,0,0,1,.11.13v2.111Z" transform="translate(0 -0.001)" fill="#a5acae"/>
      <path id="Path_18_-_Outline" data-name="Path 18 - Outline" d="M10.9-.349H13.01a1.829,1.829,0,0,1,1.809,1.53l.245,1.452a9.8,9.8,0,0,1,1.356.558l1.22-.869a1.824,1.824,0,0,1,2.356.2L21.49,4.015a1.823,1.823,0,0,1,.2,2.361l-.869,1.216a9.9,9.9,0,0,1,.536,1.3l1.475.25a1.807,1.807,0,0,1,1.52,1.814v2.106a1.829,1.829,0,0,1-1.53,1.809l-1.474.246a9.844,9.844,0,0,1-.537,1.294l.869,1.221a1.829,1.829,0,0,1-.2,2.361l-1.494,1.494a1.831,1.831,0,0,1-2.362.2L16.41,20.81a9.9,9.9,0,0,1-1.3.536l-.25,1.475a1.829,1.829,0,0,1-1.809,1.53H10.94a1.829,1.829,0,0,1-1.809-1.53l-.246-1.475a9.881,9.881,0,0,1-1.244-.511l-1.236.88a1.824,1.824,0,0,1-2.356-.2L2.555,20.022a1.823,1.823,0,0,1-.2-2.361l.863-1.2a9.652,9.652,0,0,1-.544-1.291l-1.5-.255A1.829,1.829,0,0,1-.35,13.106V11A1.829,1.829,0,0,1,1.18,9.187l1.453-.245a9.7,9.7,0,0,1,.529-1.3l-.88-1.236a1.829,1.829,0,0,1,.2-2.361l1.5-1.494a1.831,1.831,0,0,1,2.362-.2l1.2.866a9.652,9.652,0,0,1,1.291-.544l.255-1.5A1.829,1.829,0,0,1,10.9-.349Zm5.577,4.36-.191-.1a9.088,9.088,0,0,0-1.632-.671l-.209-.062L14.129,1.3A1.131,1.131,0,0,0,13.01.351H10.9A1.131,1.131,0,0,0,9.781,1.3L9.454,3.214l-.2.064a8.941,8.941,0,0,0-1.568.661l-.193.1L5.932,2.922a1.131,1.131,0,0,0-1.456.122l-1.5,1.5A1.131,1.131,0,0,0,2.852,6L3.979,7.584l-.1.19a8.991,8.991,0,0,0-.642,1.578l-.063.208L1.3,9.877A1.131,1.131,0,0,0,.35,11v2.111A1.131,1.131,0,0,0,1.3,14.225l1.917.327.064.2a8.941,8.941,0,0,0,.661,1.568l.1.193L2.926,18.069a1.125,1.125,0,0,0,.123,1.457l1.5,1.5a1.126,1.126,0,0,0,.8.334A1.11,1.11,0,0,0,6,21.145l1.586-1.129.19.1a9.164,9.164,0,0,0,1.526.628l.206.064.316,1.9a1.131,1.131,0,0,0,1.119.946h2.116a1.131,1.131,0,0,0,1.119-.946l.322-1.9.206-.064a9.193,9.193,0,0,0,1.574-.652l.191-.1,1.565,1.118a1.131,1.131,0,0,0,1.459-.123l1.494-1.494a1.131,1.131,0,0,0,.123-1.46L19.99,16.463l.1-.19a9.119,9.119,0,0,0,.652-1.574l.063-.208,1.9-.316a1.131,1.131,0,0,0,.946-1.119V10.946a1.113,1.113,0,0,0-.936-1.119l-1.9-.322L20.753,9.3A9.192,9.192,0,0,0,20.1,7.725L20,7.534l1.118-1.565A1.126,1.126,0,0,0,21,4.511l-1.5-1.5a1.126,1.126,0,0,0-.8-.334,1.11,1.11,0,0,0-.653.21ZM10.909,1H13.02a.479.479,0,0,1,.476.407l.35,2.086a.328.328,0,0,0,.241.265,8.5,8.5,0,0,1,2.244.92.334.334,0,0,0,.358-.015L18.44,3.406a.493.493,0,0,1,.255-.075.482.482,0,0,1,.343.143l1.494,1.494a.484.484,0,0,1,.063.606l-.01.015-1.238,1.74a.326.326,0,0,0-.013.357,8.377,8.377,0,0,1,.909,2.19.318.318,0,0,0,.256.238H20.5l2.1.356a.479.479,0,0,1,.4.476v2.461h-.154a.479.479,0,0,1-.258.126l-2.1.35a.324.324,0,0,0-.26.238,8.384,8.384,0,0,1-.911,2.193.327.327,0,0,0,.015.356l1.238,1.744a.489.489,0,0,1-.053.621l-1.494,1.494a.48.48,0,0,1-.623.051l-1.738-1.237a.331.331,0,0,0-.357-.013,8.378,8.378,0,0,1-2.19.909.318.318,0,0,0-.238.256V20.5l-.356,2.1a.478.478,0,0,1-.476.4H10.945a.479.479,0,0,1-.476-.407l-.35-2.1a.324.324,0,0,0-.238-.26,8.68,8.68,0,0,1-2.143-.878.339.339,0,0,0-.35.013l-.005,0L5.6,20.641a.493.493,0,0,1-.255.075.482.482,0,0,1-.343-.143L3.513,19.079a.484.484,0,0,1-.063-.606l.01-.015,1.233-1.73a.336.336,0,0,0,.013-.362,8.278,8.278,0,0,1-.919-2.182.337.337,0,0,0-.263-.242l-2.118-.36a.479.479,0,0,1-.4-.476V11a.479.479,0,0,1,.407-.476l2.086-.35a.328.328,0,0,0,.265-.241,8.358,8.358,0,0,1,.9-2.2.321.321,0,0,0-.017-.35L3.39,5.624A.489.489,0,0,1,3.442,5L4.937,3.509a.48.48,0,0,1,.623-.051L7.287,4.689a.343.343,0,0,0,.362.013,8.279,8.279,0,0,1,2.182-.919.336.336,0,0,0,.242-.263L10.434,1.4A.479.479,0,0,1,10.909,1Zm1.926.7H11.093l-.33,1.94a1.04,1.04,0,0,1-.749.82h-.005a7.585,7.585,0,0,0-2,.844,1.041,1.041,0,0,1-.528.144,1.029,1.029,0,0,1-.6-.188L5.3,4.133,4.067,5.368l1.141,1.6A1.021,1.021,0,0,1,5.26,8.085,7.658,7.658,0,0,0,4.44,10.1a1.028,1.028,0,0,1-.827.761L1.7,11.18v1.743l1.94.33a1.04,1.04,0,0,1,.82.749v.005a7.585,7.585,0,0,0,.844,2,1.039,1.039,0,0,1-.044,1.124L4.137,18.714l1.235,1.235,1.6-1.14a1.014,1.014,0,0,1,.6-.192,1.039,1.039,0,0,1,.515.136,7.979,7.979,0,0,0,1.97.807,1.024,1.024,0,0,1,.754.822l.321,1.925h1.742l.325-1.922a1.011,1.011,0,0,1,.757-.825,7.677,7.677,0,0,0,2.006-.834,1.039,1.039,0,0,1,.527-.144,1.009,1.009,0,0,1,.594.191l1.588,1.13L19.9,18.669l-1.132-1.595a1.034,1.034,0,0,1-.046-1.117,7.686,7.686,0,0,0,.835-2.011,1.024,1.024,0,0,1,.822-.754l1.925-.321v-.165h.005V11.13L20.389,10.8a1.011,1.011,0,0,1-.825-.757,7.677,7.677,0,0,0-.834-2.007,1.027,1.027,0,0,1,.047-1.121l1.13-1.588L18.674,4.1,17.095,5.234a1.028,1.028,0,0,1-1.118.048,7.8,7.8,0,0,0-2.059-.845,1.028,1.028,0,0,1-.761-.827Z" transform="translate(0 -0.001)" fill="#a5acae"/>
      <path id="Path_19" data-name="Path 19" d="M141.1,136a5,5,0,1,0,5,5A5,5,0,0,0,141.1,136Zm0,8.693A3.693,3.693,0,1,1,144.793,141,3.7,3.7,0,0,1,141.1,144.694Z" transform="translate(-129.1 -129.001)" fill="#a5acae"/>
      <path id="Path_19_-_Outline" data-name="Path 19 - Outline" d="M141.1,135.651a5.35,5.35,0,1,1-5.35,5.35A5.356,5.356,0,0,1,141.1,135.651Zm0,10a4.65,4.65,0,1,0-4.65-4.65A4.655,4.655,0,0,0,141.1,145.651Zm0-8.693A4.043,4.043,0,1,1,137.057,141,4.048,4.048,0,0,1,141.1,136.958Zm0,7.386A3.343,3.343,0,1,0,137.757,141,3.347,3.347,0,0,0,141.1,144.344Z" transform="translate(-129.1 -129.001)" fill="#a5acae"/>
    </g>
  </g>
</svg>
